<svg xmlns="http://www.w3.org/2000/svg" xml:space="preserve" fill-rule="evenodd" stroke-linejoin="round" stroke-miterlimit="2" clip-rule="evenodd" viewBox="0 0 256 256">
  <path fill-rule="nonzero" d="M128 232c-7 0-12-5-12-12v-16c0-7 5-12 12-12s12 5 12 12v16c0 7-5 12-12 12Zm-92-84c-7 0-12-5-12-12v-16c0-7 5-12 12-12s12 5 12 12v16c0 7-5 12-12 12Zm184 0c-7 0-12-5-12-12v-16c0-7 5-12 12-12s12 5 12 12v16c0 7-5 12-12 12Zm-92-84c-7 0-12-5-12-12V36c0-7 5-12 12-12s12 5 12 12v16c0 7-5 12-12 12ZM82 196c-7 0-12-5-12-12v-16c0-7 5-12 12-12s12 5 12 12v16c0 7-5 12-12 12Zm0-60c-7 0-12-5-12-12V76c0-7 5-12 12-12s12 5 12 12v48c0 7-5 12-12 12Zm46 40c-7 0-12-5-12-12V92c0-7 5-12 12-12s12 5 12 12v72c0 7-5 12-12 12Zm46-74c-7 0-12-5-12-12V74c0-7 5-12 12-12s12 5 12 12v16c0 7-5 12-12 12Zm0 92c-7 0-12-5-12-12v-48c0-7 5-12 12-12s12 5 12 12v48c0 7-5 12-12 12Z"/>
</svg>
