<svg xmlns="http://www.w3.org/2000/svg" xml:space="preserve" fill-rule="evenodd" stroke-linejoin="round" stroke-miterlimit="2" clip-rule="evenodd" viewBox="0 0 256 256">
  <path d="M128 24.59c57.08 0 103.41 46.33 103.41 103.41 0 57.07-46.33 103.41-103.4 103.41-57.08 0-103.42-46.34-103.42-103.41C24.59 70.92 70.93 24.59 128 24.59Zm37.37 150.12c-1.1 0-2.17-.3-3.1-.89-38.78-23.98-85.85-9.6-86.31-9.44a5.92 5.92 0 0 1-7.54-5.68c0-2.5 1.6-4.76 3.97-5.58 2.13-.67 52.62-16.23 96.07 10.66a5.91 5.91 0 0 1-3.1 10.93h.01Zm10.88-27.35a6.9 6.9 0 0 1-3.65-1.04c-46.49-28.52-99.7-11.3-100.23-11.11A6.97 6.97 0 0 1 67.96 122c2.42-.82 59.8-19.6 111.98 12.45a6.99 6.99 0 0 1-3.66 12.93l-.03-.02Zm15.07-29.12a8.54 8.54 0 0 1-4.2-1.1C130.39 85.2 67.87 104.2 67.25 104.36A8.59 8.59 0 0 1 62.08 88c2.83-.9 70.08-21.55 133.46 14.14a8.6 8.6 0 0 1-4.15 16.11h-.07Z"/>
</svg>
