<?xml version="1.0" standalone="no"?>
<!DOCTYPE svg PUBLIC "-//W3C//DTD SVG 20010904//EN"
 "http://www.w3.org/TR/2001/REC-SVG-20010904/DTD/svg10.dtd">
<svg version="1.0" xmlns="http://www.w3.org/2000/svg"
 width="700.000000pt" height="700.000000pt" viewBox="0 0 700.000000 700.000000"
 preserveAspectRatio="xMidYMid meet">
<metadata>
Created by potrace 1.14, written by Peter Selinger 2001-2017
</metadata>
<g transform="translate(0.000000,700.000000) scale(0.100000,-0.100000)"
fill="#000000" stroke="none">
<path d="M895 6989 c-33 -5 -91 -18 -130 -30 -372 -112 -637 -387 -736 -765
l-24 -89 0 -2605 0 -2605 21 -80 c56 -206 149 -374 285 -508 136 -134 302
-227 501 -280 l83 -22 2600 0 c2891 0 2637 -6 2832 67 267 101 500 334 601
601 73 195 67 -58 67 2827 0 2379 -1 2601 -17 2665 -94 401 -376 693 -778 806
l-85 24 -2580 1 c-1425 1 -2607 -2 -2640 -7z m4765 -1659 l0 -530 -1475 0
c-1261 0 -1475 -2 -1475 -14 0 -8 29 -193 65 -411 36 -218 65 -398 65 -401 0
-2 596 -4 1325 -4 l1325 0 0 -470 0 -470 -1325 0 c-729 0 -1325 -2 -1325 -4 0
-3 -29 -183 -65 -401 -36 -218 -65 -403 -65 -411 0 -12 217 -14 1490 -14
l1490 0 0 -530 0 -530 -2190 0 c-1885 0 -2190 2 -2190 14 0 8 79 532 175 1165
96 633 175 1165 175 1181 0 16 -79 547 -175 1180 -96 634 -175 1158 -175 1166
0 12 315 14 2175 14 l2175 0 0 -530z"/>
</g>
</svg>
