<svg xmlns="http://www.w3.org/2000/svg" viewBox="0 0 998 290">
  <g transform="matrix(1 0 0 .9 .53 139.53)">
    <circle cx="456.77" cy="649.69" r=".13" transform="matrix(-.87 -.55 .5 -.95 735.6 947.47)"/>
    <circle cx="509.25" cy="676.43" r=".13" transform="matrix(-.87 -.55 .5 -.95 735.6 947.47)"/>
    <circle cx="533.94" cy="660.39" r=".71" transform="matrix(-.87 -.55 .5 -.95 735.6 947.47)"/>
    <circle cx="558.63" cy="644.35" r=".13" transform="matrix(-.87 -.55 .5 -.95 735.6 947.47)"/>
    <circle cx="632.72" cy="596.24" r=".17" transform="matrix(-.87 -.55 .5 -.95 735.6 947.47)"/>
    <circle cx="657.41" cy="580.21" r="1.61" transform="matrix(-.87 -.55 .5 -.95 735.6 947.47)"/>
    <circle cx="432.08" cy="665.73" r="1.47" transform="matrix(-.87 -.55 .5 -.95 735.6 947.47)"/>
    <circle cx="458.32" cy="679.1" r="1.06" transform="matrix(-.87 -.55 .5 -.95 735.6 947.47)"/>
    <circle cx="658.95" cy="609.61" r="4.29" transform="matrix(-.87 -.55 .5 -.95 735.6 947.47)"/>
    <circle cx="683.65" cy="593.57" r="4.72" transform="matrix(-.87 -.55 .5 -.95 735.6 947.47)"/>
    <circle cx="682.11" cy="564.17" r="3.07" transform="matrix(-.87 -.55 .5 -.95 735.6 947.47)"/>
    <circle cx="680.57" cy="534.76" r=".27" transform="matrix(-.87 -.55 .5 -.95 735.6 947.47)"/>
    <circle cx="407.39" cy="681.76" r="3.09" transform="matrix(-.87 -.55 .5 -.95 735.6 947.47)"/>
    <circle cx="433.62" cy="695.13" r="2.92" transform="matrix(-.87 -.55 .5 -.95 735.6 947.47)"/>
    <circle cx="459.86" cy="708.5" r=".13" transform="matrix(-.87 -.55 .5 -.95 735.6 947.47)"/>
    <circle cx="708.34" cy="577.54" r="5.4" transform="matrix(-.87 -.55 .5 -.95 735.6 947.47)"/>
    <circle cx="706.8" cy="548.13" r="4.12" transform="matrix(-.87 -.55 .5 -.95 735.6 947.47)"/>
    <circle cx="705.26" cy="518.73" r="1.47" transform="matrix(-.87 -.55 .5 -.95 735.6 947.47)"/>
    <circle cx="382.69" cy="697.8" r="4.55" transform="matrix(-.87 -.55 .5 -.95 735.6 947.47)"/>
    <circle cx="408.93" cy="711.17" r="4.79" transform="matrix(-.87 -.55 .5 -.95 735.6 947.47)"/>
    <circle cx="435.16" cy="724.54" r="1.19" transform="matrix(-.87 -.55 .5 -.95 735.6 947.47)"/>
    <circle cx="733.04" cy="561.5" r="6.96" transform="matrix(-.87 -.55 .5 -.95 735.6 947.47)"/>
    <circle cx="731.5" cy="532.1" r="5.5" transform="matrix(-.87 -.55 .5 -.95 735.6 947.47)"/>
    <circle cx="729.96" cy="502.69" r="1.89" transform="matrix(-.87 -.55 .5 -.95 735.6 947.47)"/>
    <circle cx="358" cy="713.84" r="4.69" transform="matrix(-.87 -.55 .5 -.95 735.6 947.47)"/>
    <circle cx="384.23" cy="727.21" r="5.76" transform="matrix(-.87 -.55 .5 -.95 735.6 947.47)"/>
    <circle cx="410.47" cy="740.57" r="2.17" transform="matrix(-.87 -.55 .5 -.95 735.6 947.47)"/>
    <circle cx="757.73" cy="545.46" r="9.09" transform="matrix(-.87 -.55 .5 -.95 735.6 947.47)"/>
    <circle cx="756.19" cy="516.06" r="6.59" transform="matrix(-.87 -.55 .5 -.95 735.6 947.47)"/>
    <circle cx="754.65" cy="486.65" r="1.61" transform="matrix(-.87 -.55 .5 -.95 735.6 947.47)"/>
    <circle cx="333.3" cy="729.88" r="3.33" transform="matrix(-.87 -.55 .5 -.95 735.6 947.47)"/>
    <circle cx="359.54" cy="743.24" r="5.31" transform="matrix(-.87 -.55 .5 -.95 735.6 947.47)"/>
    <circle cx="385.77" cy="756.61" r="2.68" transform="matrix(-.87 -.55 .5 -.95 735.6 947.47)"/>
    <circle cx="782.43" cy="529.43" r="9.49" transform="matrix(-.87 -.55 .5 -.95 735.6 947.47)"/>
    <circle cx="780.89" cy="500.02" r="5.05" transform="matrix(-.87 -.55 .5 -.95 735.6 947.47)"/>
    <circle cx="779.35" cy="470.62" r=".81" transform="matrix(-.87 -.55 .5 -.95 735.6 947.47)"/>
    <circle cx="776.26" cy="411.81" r=".26" transform="matrix(-.87 -.55 .5 -.95 735.6 947.47)"/>
    <circle cx="308.61" cy="745.91" r="2.42" transform="matrix(-.87 -.55 .5 -.95 735.6 947.47)"/>
    <circle cx="334.84" cy="759.28" r="4.27" transform="matrix(-.87 -.55 .5 -.95 735.6 947.47)"/>
    <circle cx="361.08" cy="772.65" r="2.67" transform="matrix(-.87 -.55 .5 -.95 735.6 947.47)"/>
    <circle cx="807.12" cy="513.39" r="5.73" transform="matrix(-.87 -.55 .5 -.95 735.6 947.47)"/>
    <circle cx="805.58" cy="483.99" r="2.15" transform="matrix(-.87 -.55 .5 -.95 735.6 947.47)"/>
    <circle cx="804.04" cy="454.58" r="1.47" transform="matrix(-.87 -.55 .5 -.95 735.6 947.47)"/>
    <circle cx="802.5" cy="425.18" r="2.26" transform="matrix(-.87 -.55 .5 -.95 735.6 947.47)"/>
    <circle cx="800.96" cy="395.77" r="1.8" transform="matrix(-.87 -.55 .5 -.95 735.6 947.47)"/>
    <circle cx="283.91" cy="761.95" r="3.22" transform="matrix(-.87 -.55 .5 -.95 735.6 947.47)"/>
    <circle cx="310.15" cy="775.32" r="4.44" transform="matrix(-.87 -.55 .5 -.95 735.6 947.47)"/>
    <circle cx="336.38" cy="788.68" r="3.37" transform="matrix(-.87 -.55 .5 -.95 735.6 947.47)"/>
    <circle cx="831.82" cy="497.35" r=".79" transform="matrix(-.87 -.55 .5 -.95 735.6 947.47)"/>
    <circle cx="830.27" cy="467.95" r="1.34" transform="matrix(-.87 -.55 .5 -.95 735.6 947.47)"/>
    <circle cx="828.73" cy="438.54" r="4.38" transform="matrix(-.87 -.55 .5 -.95 735.6 947.47)"/>
    <circle cx="827.19" cy="409.14" r="5.35" transform="matrix(-.87 -.55 .5 -.95 735.6 947.47)"/>
    <circle cx="825.65" cy="379.74" r="2.96" transform="matrix(-.87 -.55 .5 -.95 735.6 947.47)"/>
    <circle cx="259.22" cy="777.99" r="3.65" transform="matrix(-.87 -.55 .5 -.95 735.6 947.47)"/>
    <circle cx="285.45" cy="791.35" r="5.05" transform="matrix(-.87 -.55 .5 -.95 735.6 947.47)"/>
    <circle cx="311.69" cy="804.72" r="4.68" transform="matrix(-.87 -.55 .5 -.95 735.6 947.47)"/>
    <circle cx="854.97" cy="451.91" r="2.96" transform="matrix(-.87 -.55 .5 -.95 735.6 947.47)"/>
    <circle cx="853.43" cy="422.51" r="7.88" transform="matrix(-.87 -.55 .5 -.95 735.6 947.47)"/>
    <circle cx="851.89" cy="393.1" r="7.32" transform="matrix(-.87 -.55 .5 -.95 735.6 947.47)"/>
    <circle cx="850.35" cy="363.7" r="3.23" transform="matrix(-.87 -.55 .5 -.95 735.6 947.47)"/>
    <circle cx="234.52" cy="794.02" r="4.15" transform="matrix(-.87 -.55 .5 -.95 735.6 947.47)"/>
    <circle cx="260.76" cy="807.39" r="5.89" transform="matrix(-.87 -.55 .5 -.95 735.6 947.47)"/>
    <circle cx="287" cy="820.76" r="5.81" transform="matrix(-.87 -.55 .5 -.95 735.6 947.47)"/>
    <circle cx="881.21" cy="465.28" r=".05" transform="matrix(-.87 -.55 .5 -.95 735.6 947.47)"/>
    <circle cx="879.66" cy="435.88" r="6" transform="matrix(-.87 -.55 .5 -.95 735.6 947.47)"/>
    <circle cx="878.12" cy="406.47" r="10.43" transform="matrix(-.87 -.55 .5 -.95 735.6 947.47)"/>
    <circle cx="876.58" cy="377.07" r="8.43" transform="matrix(-.87 -.55 .5 -.95 735.6 947.47)"/>
    <circle cx="875.04" cy="347.66" r="2.84" transform="matrix(-.87 -.55 .5 -.95 735.6 947.47)"/>
    <circle cx="236.06" cy="823.43" r="7.34" transform="matrix(-.87 -.55 .5 -.95 735.6 947.47)"/>
    <circle cx="262.3" cy="836.79" r="7.59" transform="matrix(-.87 -.55 .5 -.95 735.6 947.47)"/>
    <circle cx="905.9" cy="449.24" r="2.82" transform="matrix(-.87 -.55 .5 -.95 735.6 947.47)"/>
    <circle cx="904.36" cy="419.84" r="9.23" transform="matrix(-.87 -.55 .5 -.95 735.6 947.47)"/>
    <circle cx="902.82" cy="390.43" r="12.27" transform="matrix(-.87 -.55 .5 -.95 735.6 947.47)"/>
    <circle cx="901.28" cy="361.03" r="8.58" transform="matrix(-.87 -.55 .5 -.95 735.6 947.47)"/>
    <circle cx="899.74" cy="331.62" r="2.03" transform="matrix(-.87 -.55 .5 -.95 735.6 947.47)"/>
    <circle cx="237.61" cy="852.83" r="8.75" transform="matrix(-.87 -.55 .5 -.95 735.6 947.47)"/>
    <circle cx="930.59" cy="433.21" r="5.88" transform="matrix(-.87 -.55 .5 -.95 735.6 947.47)"/>
    <circle cx="929.05" cy="403.8" r="11.34" transform="matrix(-.87 -.55 .5 -.95 735.6 947.47)"/>
    <circle cx="927.51" cy="374.4" r="12.4" transform="matrix(-.87 -.55 .5 -.95 735.6 947.47)"/>
    <circle cx="925.97" cy="344.99" r="6.94" transform="matrix(-.87 -.55 .5 -.95 735.6 947.47)"/>
    <circle cx="924.43" cy="315.59" r=".65" transform="matrix(-.87 -.55 .5 -.95 735.6 947.47)"/>
    <circle cx="955.29" cy="417.17" r="7.76" transform="matrix(-.87 -.55 .5 -.95 735.6 947.47)"/>
    <circle cx="953.75" cy="387.76" r="11.26" transform="matrix(-.87 -.55 .5 -.95 735.6 947.47)"/>
    <circle cx="952.21" cy="358.36" r="10.46" transform="matrix(-.87 -.55 .5 -.95 735.6 947.47)"/>
    <circle cx="950.67" cy="328.95" r="4.44" transform="matrix(-.87 -.55 .5 -.95 735.6 947.47)"/>
    <circle cx="979.98" cy="401.13" r="7.38" transform="matrix(-.87 -.55 .5 -.95 735.6 947.47)"/>
    <circle cx="978.44" cy="371.73" r="8.84" transform="matrix(-.87 -.55 .5 -.95 735.6 947.47)"/>
    <circle cx="976.9" cy="342.32" r="7.2" transform="matrix(-.87 -.55 .5 -.95 735.6 947.47)"/>
    <circle cx="975.36" cy="312.92" r="1.45" transform="matrix(-.87 -.55 .5 -.95 735.6 947.47)"/>
    <circle cx="1004.68" cy="385.1" r="6.31" transform="matrix(-.87 -.55 .5 -.95 735.6 947.47)"/>
    <circle cx="1003.14" cy="355.69" r="6.71" transform="matrix(-.87 -.55 .5 -.95 735.6 947.47)"/>
    <circle cx="799.42" cy="366.37" r="1.67" transform="matrix(-.87 -.55 .5 -.95 735.6 947.47)"/>
    <circle cx="824.11" cy="350.33" r="1.63" transform="matrix(-.87 -.55 .5 -.95 735.6 947.47)"/>
    <circle cx="848.81" cy="334.29" r="1.38" transform="matrix(-.87 -.55 .5 -.95 735.6 947.47)"/>
    <circle cx="510.79" cy="705.83" r=".58" transform="matrix(-.87 -.55 .5 -.95 735.6 947.47)"/>
    <circle cx="535.48" cy="689.79" r="2.14" transform="matrix(-.87 -.55 .5 -.95 735.6 947.47)"/>
    <circle cx="560.18" cy="673.76" r="2.39" transform="matrix(-.87 -.55 .5 -.95 735.6 947.47)"/>
    <circle cx="584.87" cy="657.72" r="1.06" transform="matrix(-.87 -.55 .5 -.95 735.6 947.47)"/>
    <circle cx="609.57" cy="641.68" r="1.61" transform="matrix(-.87 -.55 .5 -.95 735.6 947.47)"/>
    <circle cx="634.26" cy="625.65" r="3.34" transform="matrix(-.87 -.55 .5 -.95 735.6 947.47)"/>
    <circle cx="685.19" cy="622.98" r="6.81" transform="matrix(-.87 -.55 .5 -.95 735.6 947.47)"/>
    <circle cx="709.88" cy="606.94" r="6.43" transform="matrix(-.87 -.55 .5 -.95 735.6 947.47)"/>
    <circle cx="734.58" cy="590.9" r="7.51" transform="matrix(-.87 -.55 .5 -.95 735.6 947.47)"/>
    <circle cx="759.27" cy="574.87" r="9.78" transform="matrix(-.87 -.55 .5 -.95 735.6 947.47)"/>
    <circle cx="783.97" cy="558.83" r="11.11" transform="matrix(-.87 -.55 .5 -.95 735.6 947.47)"/>
    <circle cx="387.31" cy="786.02" r=".53" transform="matrix(-.87 -.55 .5 -.95 735.6 947.47)"/>
    <circle cx="808.66" cy="542.79" r="8.68" transform="matrix(-.87 -.55 .5 -.95 735.6 947.47)"/>
    <circle cx="362.62" cy="802.05" r="2.31" transform="matrix(-.87 -.55 .5 -.95 735.6 947.47)"/>
    <circle cx="833.36" cy="526.76" r="2.81" transform="matrix(-.87 -.55 .5 -.95 735.6 947.47)"/>
    <circle cx="337.93" cy="818.09" r="4.16" transform="matrix(-.87 -.55 .5 -.95 735.6 947.47)"/>
    <circle cx="313.23" cy="834.13" r="5.61" transform="matrix(-.87 -.55 .5 -.95 735.6 947.47)"/>
    <circle cx="288.54" cy="850.16" r="6.96" transform="matrix(-.87 -.55 .5 -.95 735.6 947.47)"/>
    <circle cx="263.84" cy="866.2" r="8.53" transform="matrix(-.87 -.55 .5 -.95 735.6 947.47)"/>
    <circle cx="932.13" cy="462.61" r="2.4" transform="matrix(-.87 -.55 .5 -.95 735.6 947.47)"/>
    <circle cx="956.83" cy="446.57" r="4.56" transform="matrix(-.87 -.55 .5 -.95 735.6 947.47)"/>
    <circle cx="981.52" cy="430.54" r="5.38" transform="matrix(-.87 -.55 .5 -.95 735.6 947.47)"/>
    <circle cx="1006.22" cy="414.5" r="5.38" transform="matrix(-.87 -.55 .5 -.95 735.6 947.47)"/>
    <circle cx="1001.6" cy="326.29" r="4.18" transform="matrix(-.87 -.55 .5 -.95 735.6 947.47)"/>
    <circle cx="1030.91" cy="398.46" r="5.91" transform="matrix(-.87 -.55 .5 -.95 735.6 947.47)"/>
    <circle cx="1029.37" cy="369.06" r="6.71" transform="matrix(-.87 -.55 .5 -.95 735.6 947.47)"/>
    <circle cx="1027.83" cy="339.65" r="5.74" transform="matrix(-.87 -.55 .5 -.95 735.6 947.47)"/>
    <circle cx="1026.29" cy="310.25" r="1.45" transform="matrix(-.87 -.55 .5 -.95 735.6 947.47)"/>
    <circle cx="512.33" cy="735.24" r="1.59" transform="matrix(-.87 -.55 .5 -.95 735.6 947.47)"/>
    <circle cx="537.02" cy="719.2" r="2.81" transform="matrix(-.87 -.55 .5 -.95 735.6 947.47)"/>
    <circle cx="561.72" cy="703.16" r="3.07" transform="matrix(-.87 -.55 .5 -.95 735.6 947.47)"/>
    <circle cx="586.41" cy="687.13" r="2.01" transform="matrix(-.87 -.55 .5 -.95 735.6 947.47)"/>
    <circle cx="611.11" cy="671.09" r="2.94" transform="matrix(-.87 -.55 .5 -.95 735.6 947.47)"/>
    <circle cx="635.8" cy="655.05" r="5.77" transform="matrix(-.87 -.55 .5 -.95 735.6 947.47)"/>
    <circle cx="660.5" cy="639.01" r="7.35" transform="matrix(-.87 -.55 .5 -.95 735.6 947.47)"/>
    <circle cx="487.63" cy="751.27" r=".17" transform="matrix(-.87 -.55 .5 -.95 735.6 947.47)"/>
    <circle cx="513.87" cy="764.64" r="1.61" transform="matrix(-.87 -.55 .5 -.95 735.6 947.47)"/>
    <circle cx="538.56" cy="748.6" r="2.54" transform="matrix(-.87 -.55 .5 -.95 735.6 947.47)"/>
    <circle cx="563.26" cy="732.57" r="2.54" transform="matrix(-.87 -.55 .5 -.95 735.6 947.47)"/>
    <circle cx="587.95" cy="716.53" r="1.34" transform="matrix(-.87 -.55 .5 -.95 735.6 947.47)"/>
    <circle cx="612.65" cy="700.49" r="1.87" transform="matrix(-.87 -.55 .5 -.95 735.6 947.47)"/>
    <circle cx="637.34" cy="684.46" r="5.64" transform="matrix(-.87 -.55 .5 -.95 735.6 947.47)"/>
    <circle cx="662.04" cy="668.42" r="9.23" transform="matrix(-.87 -.55 .5 -.95 735.6 947.47)"/>
    <circle cx="686.73" cy="652.38" r="9.78" transform="matrix(-.87 -.55 .5 -.95 735.6 947.47)"/>
    <circle cx="711.43" cy="636.35" r="9.07" transform="matrix(-.87 -.55 .5 -.95 735.6 947.47)"/>
    <circle cx="736.12" cy="620.31" r="9.34" transform="matrix(-.87 -.55 .5 -.95 735.6 947.47)"/>
    <circle cx="489.18" cy="780.68" r=".66" transform="matrix(-.87 -.55 .5 -.95 735.6 947.47)"/>
    <circle cx="515.41" cy="794.04" r="2.41" transform="matrix(-.87 -.55 .5 -.95 735.6 947.47)"/>
    <circle cx="540.11" cy="778.01" r="2.81" transform="matrix(-.87 -.55 .5 -.95 735.6 947.47)"/>
    <circle cx="564.8" cy="761.97" r="2.01" transform="matrix(-.87 -.55 .5 -.95 735.6 947.47)"/>
    <circle cx="589.49" cy="745.93" r=".81" transform="matrix(-.87 -.55 .5 -.95 735.6 947.47)"/>
    <circle cx="614.19" cy="729.9" r=".14" transform="matrix(-.87 -.55 .5 -.95 735.6 947.47)"/>
    <circle cx="638.88" cy="713.86" r="2.41" transform="matrix(-.87 -.55 .5 -.95 735.6 947.47)"/>
    <circle cx="663.58" cy="697.82" r="7.21" transform="matrix(-.87 -.55 .5 -.95 735.6 947.47)"/>
    <circle cx="688.27" cy="681.79" r="10.12" transform="matrix(-.87 -.55 .5 -.95 735.6 947.47)"/>
    <circle cx="712.97" cy="665.75" r="10.58" transform="matrix(-.87 -.55 .5 -.95 735.6 947.47)"/>
    <circle cx="737.66" cy="649.71" r="10.59" transform="matrix(-.87 -.55 .5 -.95 735.6 947.47)"/>
    <circle cx="762.36" cy="633.68" r="10.39" transform="matrix(-.87 -.55 .5 -.95 735.6 947.47)"/>
    <circle cx="760.82" cy="604.27" r="10.18" transform="matrix(-.87 -.55 .5 -.95 735.6 947.47)"/>
    <circle cx="490.72" cy="810.08" r=".93" transform="matrix(-.87 -.55 .5 -.95 735.6 947.47)"/>
    <circle cx="516.95" cy="823.45" r="3.49" transform="matrix(-.87 -.55 .5 -.95 735.6 947.47)"/>
    <circle cx="541.65" cy="807.41" r="4.34" transform="matrix(-.87 -.55 .5 -.95 735.6 947.47)"/>
    <circle cx="566.34" cy="791.38" r="3.75" transform="matrix(-.87 -.55 .5 -.95 735.6 947.47)"/>
    <circle cx="591.03" cy="775.34" r="2.12" transform="matrix(-.87 -.55 .5 -.95 735.6 947.47)"/>
    <circle cx="615.73" cy="759.3" r=".41" transform="matrix(-.87 -.55 .5 -.95 735.6 947.47)"/>
    <circle cx="640.42" cy="743.27" r=".01" transform="matrix(-.87 -.55 .5 -.95 735.6 947.47)"/>
    <circle cx="665.12" cy="727.23" r="2.15" transform="matrix(-.87 -.55 .5 -.95 735.6 947.47)"/>
    <circle cx="689.81" cy="711.19" r="5.46" transform="matrix(-.87 -.55 .5 -.95 735.6 947.47)"/>
    <circle cx="714.51" cy="695.15" r="7.88" transform="matrix(-.87 -.55 .5 -.95 735.6 947.47)"/>
    <circle cx="739.2" cy="679.12" r="9.04" transform="matrix(-.87 -.55 .5 -.95 735.6 947.47)"/>
    <circle cx="763.9" cy="663.08" r="8.83" transform="matrix(-.87 -.55 .5 -.95 735.6 947.47)"/>
    <circle cx="788.59" cy="647.04" r="7.35" transform="matrix(-.87 -.55 .5 -.95 735.6 947.47)"/>
    <circle cx="787.05" cy="617.64" r="9.17" transform="matrix(-.87 -.55 .5 -.95 735.6 947.47)"/>
    <circle cx="785.51" cy="588.24" r="10.44" transform="matrix(-.87 -.55 .5 -.95 735.6 947.47)"/>
    <circle cx="466.02" cy="826.12" r=".58" transform="matrix(-.87 -.55 .5 -.95 735.6 947.47)"/>
    <circle cx="492.26" cy="839.49" r="2.41" transform="matrix(-.87 -.55 .5 -.95 735.6 947.47)"/>
    <circle cx="518.49" cy="852.85" r="4.57" transform="matrix(-.87 -.55 .5 -.95 735.6 947.47)"/>
    <circle cx="543.19" cy="836.82" r="6.04" transform="matrix(-.87 -.55 .5 -.95 735.6 947.47)"/>
    <circle cx="567.88" cy="820.78" r="5.77" transform="matrix(-.87 -.55 .5 -.95 735.6 947.47)"/>
    <circle cx="592.58" cy="804.74" r="4.19" transform="matrix(-.87 -.55 .5 -.95 735.6 947.47)"/>
    <circle cx="617.27" cy="788.71" r="2.7" transform="matrix(-.87 -.55 .5 -.95 735.6 947.47)"/>
    <circle cx="641.97" cy="772.67" r=".95" transform="matrix(-.87 -.55 .5 -.95 735.6 947.47)"/>
    <circle cx="666.66" cy="756.63" r=".06" transform="matrix(-.87 -.55 .5 -.95 735.6 947.47)"/>
    <circle cx="691.35" cy="740.6" r="1.13" transform="matrix(-.87 -.55 .5 -.95 735.6 947.47)"/>
    <circle cx="716.05" cy="724.56" r="3.22" transform="matrix(-.87 -.55 .5 -.95 735.6 947.47)"/>
    <circle cx="740.74" cy="708.52" r="5.21" transform="matrix(-.87 -.55 .5 -.95 735.6 947.47)"/>
    <circle cx="765.44" cy="692.49" r="6.28" transform="matrix(-.87 -.55 .5 -.95 735.6 947.47)"/>
    <circle cx="790.13" cy="676.45" r="5.63" transform="matrix(-.87 -.55 .5 -.95 735.6 947.47)"/>
    <circle cx="814.83" cy="660.41" r="4.15" transform="matrix(-.87 -.55 .5 -.95 735.6 947.47)"/>
    <circle cx="813.29" cy="631.01" r="4.66" transform="matrix(-.87 -.55 .5 -.95 735.6 947.47)"/>
    <circle cx="811.75" cy="601.6" r="6.53" transform="matrix(-.87 -.55 .5 -.95 735.6 947.47)"/>
    <circle cx="810.2" cy="572.2" r="8.41" transform="matrix(-.87 -.55 .5 -.95 735.6 947.47)"/>
    <circle cx="388.86" cy="815.42" r="1.91" transform="matrix(-.87 -.55 .5 -.95 735.6 947.47)"/>
    <circle cx="415.09" cy="828.79" r="1.62" transform="matrix(-.87 -.55 .5 -.95 735.6 947.47)"/>
    <circle cx="441.33" cy="842.16" r="1.59" transform="matrix(-.87 -.55 .5 -.95 735.6 947.47)"/>
    <circle cx="467.56" cy="855.52" r="2.3" transform="matrix(-.87 -.55 .5 -.95 735.6 947.47)"/>
    <circle cx="493.8" cy="868.89" r="3.52" transform="matrix(-.87 -.55 .5 -.95 735.6 947.47)"/>
    <circle cx="841.06" cy="673.78" r="3.76" transform="matrix(-.87 -.55 .5 -.95 735.6 947.47)"/>
    <circle cx="839.52" cy="644.38" r="2.66" transform="matrix(-.87 -.55 .5 -.95 735.6 947.47)"/>
    <circle cx="837.98" cy="614.97" r="2.02" transform="matrix(-.87 -.55 .5 -.95 735.6 947.47)"/>
    <circle cx="836.44" cy="585.57" r="2.81" transform="matrix(-.87 -.55 .5 -.95 735.6 947.47)"/>
    <circle cx="834.9" cy="556.16" r="3.75" transform="matrix(-.87 -.55 .5 -.95 735.6 947.47)"/>
    <circle cx="364.16" cy="831.46" r="4.93" transform="matrix(-.87 -.55 .5 -.95 735.6 947.47)"/>
    <circle cx="390.4" cy="844.83" r="4.82" transform="matrix(-.87 -.55 .5 -.95 735.6 947.47)"/>
    <circle cx="416.63" cy="858.19" r="3.74" transform="matrix(-.87 -.55 .5 -.95 735.6 947.47)"/>
    <circle cx="442.87" cy="871.56" r="3.33" transform="matrix(-.87 -.55 .5 -.95 735.6 947.47)"/>
    <circle cx="469.1" cy="884.93" r="3.89" transform="matrix(-.87 -.55 .5 -.95 735.6 947.47)"/>
    <circle cx="865.76" cy="657.74" r="3.4" transform="matrix(-.87 -.55 .5 -.95 735.6 947.47)"/>
    <circle cx="864.22" cy="628.34" r="1.77" transform="matrix(-.87 -.55 .5 -.95 735.6 947.47)"/>
    <circle cx="862.67" cy="598.93" r=".41" transform="matrix(-.87 -.55 .5 -.95 735.6 947.47)"/>
    <circle cx="339.47" cy="847.49" r="6.9" transform="matrix(-.87 -.55 .5 -.95 735.6 947.47)"/>
    <circle cx="365.7" cy="860.86" r="7.83" transform="matrix(-.87 -.55 .5 -.95 735.6 947.47)"/>
    <circle cx="391.94" cy="874.23" r="6.82" transform="matrix(-.87 -.55 .5 -.95 735.6 947.47)"/>
    <circle cx="418.17" cy="887.6" r="5.08" transform="matrix(-.87 -.55 .5 -.95 735.6 947.47)"/>
    <circle cx="444.41" cy="900.97" r="4.44" transform="matrix(-.87 -.55 .5 -.95 735.6 947.47)"/>
    <circle cx="890.45" cy="641.71" r="3.53" transform="matrix(-.87 -.55 .5 -.95 735.6 947.47)"/>
    <circle cx="888.91" cy="612.3" r="2.13" transform="matrix(-.87 -.55 .5 -.95 735.6 947.47)"/>
    <circle cx="887.37" cy="582.9" r=".69" transform="matrix(-.87 -.55 .5 -.95 735.6 947.47)"/>
    <circle cx="873.5" cy="318.26" r=".84" transform="matrix(-.87 -.55 .5 -.95 735.6 947.47)"/>
    <circle cx="314.77" cy="863.53" r="7.68" transform="matrix(-.87 -.55 .5 -.95 735.6 947.47)"/>
    <circle cx="341.01" cy="876.9" r="9.26" transform="matrix(-.87 -.55 .5 -.95 735.6 947.47)"/>
    <circle cx="367.24" cy="890.27" r="8.82" transform="matrix(-.87 -.55 .5 -.95 735.6 947.47)"/>
    <circle cx="393.48" cy="903.63" r="6.72" transform="matrix(-.87 -.55 .5 -.95 735.6 947.47)"/>
    <circle cx="419.71" cy="917" r="5.11" transform="matrix(-.87 -.55 .5 -.95 735.6 947.47)"/>
    <circle cx="915.15" cy="625.67" r="4.03" transform="matrix(-.87 -.55 .5 -.95 735.6 947.47)"/>
    <circle cx="913.61" cy="596.26" r="3.21" transform="matrix(-.87 -.55 .5 -.95 735.6 947.47)"/>
    <circle cx="912.06" cy="566.86" r="2.28" transform="matrix(-.87 -.55 .5 -.95 735.6 947.47)"/>
    <circle cx="910.52" cy="537.46" r="1.1" transform="matrix(-.87 -.55 .5 -.95 735.6 947.47)"/>
    <circle cx="898.2" cy="302.22" r=".18" transform="matrix(-.87 -.55 .5 -.95 735.6 947.47)"/>
    <circle cx="290.08" cy="879.57" r="8.23" transform="matrix(-.87 -.55 .5 -.95 735.6 947.47)"/>
    <circle cx="316.31" cy="892.93" r="8.9" transform="matrix(-.87 -.55 .5 -.95 735.6 947.47)"/>
    <circle cx="342.55" cy="906.3" r="8.82" transform="matrix(-.87 -.55 .5 -.95 735.6 947.47)"/>
    <circle cx="368.78" cy="919.67" r="7.27" transform="matrix(-.87 -.55 .5 -.95 735.6 947.47)"/>
    <circle cx="395.02" cy="933.04" r="5.51" transform="matrix(-.87 -.55 .5 -.95 735.6 947.47)"/>
    <circle cx="939.84" cy="609.63" r="4.43" transform="matrix(-.87 -.55 .5 -.95 735.6 947.47)"/>
    <circle cx="938.3" cy="580.23" r="4.16" transform="matrix(-.87 -.55 .5 -.95 735.6 947.47)"/>
    <circle cx="936.76" cy="550.82" r="3.53" transform="matrix(-.87 -.55 .5 -.95 735.6 947.47)"/>
    <circle cx="935.22" cy="521.42" r="2.81" transform="matrix(-.87 -.55 .5 -.95 735.6 947.47)"/>
    <circle cx="933.68" cy="492.01" r="1.79" transform="matrix(-.87 -.55 .5 -.95 735.6 947.47)"/>
    <circle cx="239.15" cy="882.24" r="7.7" transform="matrix(-.87 -.55 .5 -.95 735.6 947.47)"/>
    <circle cx="265.38" cy="895.6" r="7.67" transform="matrix(-.87 -.55 .5 -.95 735.6 947.47)"/>
    <circle cx="291.62" cy="908.97" r="7.64" transform="matrix(-.87 -.55 .5 -.95 735.6 947.47)"/>
    <circle cx="317.85" cy="922.34" r="7.48" transform="matrix(-.87 -.55 .5 -.95 735.6 947.47)"/>
    <circle cx="344.09" cy="935.71" r="6.69" transform="matrix(-.87 -.55 .5 -.95 735.6 947.47)"/>
    <circle cx="964.53" cy="593.6" r="4.58" transform="matrix(-.87 -.55 .5 -.95 735.6 947.47)"/>
    <circle cx="962.99" cy="564.19" r="4.44" transform="matrix(-.87 -.55 .5 -.95 735.6 947.47)"/>
    <circle cx="961.45" cy="534.79" r="4.31" transform="matrix(-.87 -.55 .5 -.95 735.6 947.47)"/>
    <circle cx="959.91" cy="505.38" r="3.89" transform="matrix(-.87 -.55 .5 -.95 735.6 947.47)"/>
    <circle cx="958.37" cy="475.98" r="3.49" transform="matrix(-.87 -.55 .5 -.95 735.6 947.47)"/>
    <circle cx="240.69" cy="911.64" r="5.09" transform="matrix(-.87 -.55 .5 -.95 735.6 947.47)"/>
    <circle cx="266.92" cy="925.01" r="5.07" transform="matrix(-.87 -.55 .5 -.95 735.6 947.47)"/>
    <circle cx="293.16" cy="938.38" r="5.15" transform="matrix(-.87 -.55 .5 -.95 735.6 947.47)"/>
    <circle cx="319.39" cy="951.74" r="4.96" transform="matrix(-.87 -.55 .5 -.95 735.6 947.47)"/>
    <circle cx="989.23" cy="577.56" r="4.44" transform="matrix(-.87 -.55 .5 -.95 735.6 947.47)"/>
    <circle cx="987.69" cy="548.15" r="4.58" transform="matrix(-.87 -.55 .5 -.95 735.6 947.47)"/>
    <circle cx="986.15" cy="518.75" r="4.58" transform="matrix(-.87 -.55 .5 -.95 735.6 947.47)"/>
    <circle cx="984.61" cy="489.35" r="4.44" transform="matrix(-.87 -.55 .5 -.95 735.6 947.47)"/>
    <circle cx="983.07" cy="459.94" r="4.56" transform="matrix(-.87 -.55 .5 -.95 735.6 947.47)"/>
    <circle cx="242.23" cy="941.05" r=".66" transform="matrix(-.87 -.55 .5 -.95 735.6 947.47)"/>
    <circle cx="268.46" cy="954.41" r=".82" transform="matrix(-.87 -.55 .5 -.95 735.6 947.47)"/>
    <circle cx="294.7" cy="967.78" r="1.64" transform="matrix(-.87 -.55 .5 -.95 735.6 947.47)"/>
    <circle cx="1013.92" cy="561.52" r="4.44" transform="matrix(-.87 -.55 .5 -.95 735.6 947.47)"/>
    <circle cx="1012.38" cy="532.12" r="4.44" transform="matrix(-.87 -.55 .5 -.95 735.6 947.47)"/>
    <circle cx="1010.84" cy="502.71" r="4.58" transform="matrix(-.87 -.55 .5 -.95 735.6 947.47)"/>
    <circle cx="1009.3" cy="473.31" r="4.58" transform="matrix(-.87 -.55 .5 -.95 735.6 947.47)"/>
    <circle cx="1007.76" cy="443.9" r="4.84" transform="matrix(-.87 -.55 .5 -.95 735.6 947.47)"/>
    <circle cx="1034" cy="457.27" r="4.69" transform="matrix(-.87 -.55 .5 -.95 735.6 947.47)"/>
    <circle cx="1032.45" cy="427.87" r="5.11" transform="matrix(-.87 -.55 .5 -.95 735.6 947.47)"/>
  </g>
</svg>
