<svg xmlns="http://www.w3.org/2000/svg" viewBox="0 96 960 960">
  <path d="M480 716q58 0 99-41t41-99q0-58-41-99t-99-41q-58 0-99 41t-41 99q0 58 41 99t99 41Zm0 60q-83 0-141-58t-59-142q0-83 59-141t141-59q83 0 142 59t58 141q0 83-58 142t-142 58ZM70 606q-13 0-21-9-9-8-9-21t9-21 21-9h100q13 0 21 9 9 8 9 21t-9 21-21 9H70Zm720 0q-13 0-21-9-9-8-9-21t9-21 21-9h100q13 0 21 9 9 8 9 21t-9 21-21 9H790ZM480 296q-13 0-21-9t-9-21V166q0-13 9-21 8-9 21-9t22 9 8 21v100q0 13-9 21-8 9-21 9Zm0 720q-13 0-22-9-8-8-8-21V886q0-13 9-21 8-9 21-9t22 9 8 21v100q0 13-9 21-8 9-21 9ZM240 378l-57-56q-9-9-9-22 1-12 9-21 9-9 21-9 13 0 22 9l56 57q8 9 8 21t-8 21q-8 8-20 8t-22-8Zm494 495-56-57q-8-9-8-21t9-21q8-9 20-9t21 9l57 56q9 9 9 22-1 12-9 21-9 9-21 9-13 0-22-9Zm-56-495q-9-9-9-21t9-21l56-57q9-9 22-9 12 1 21 9 9 9 9 21 0 13-9 22l-57 56q-8 8-20 8-13 0-22-8ZM183 873q-9-9-9-21 0-13 9-22l57-56q9-9 21-9t21 9q9 9 9 21t-9 21l-56 57q-9 9-22 9-12-1-21-9Zm297-297Z"/>
</svg>
