<svg xmlns="http://www.w3.org/2000/svg" viewBox="0 0 308 197">
  <path d="M50.11 22.77v10.8H10.56v-10.8h39.55Zm-29.4 5.4L17.2 49.85l-6.05-6.77H52.5v12.1H2.28l4.1-27.01-4.1-27.02h49.85v12.1h-41l6.06-6.77 3.53 21.69Zm50.73-3.39H91.1c2.4 0 4.28-.55 5.62-1.65a5.64 5.64 0 0 0 2.02-4.61c0-2.02-.67-3.57-2.02-4.65-1.34-1.08-3.22-1.62-5.62-1.62H69.35l6.7-7.14V55.2H61.13V1.15H93.2c4.13 0 7.74.73 10.8 2.2a17.56 17.56 0 0 1 7.21 6.05c1.73 2.57 2.6 5.6 2.6 9.12 0 3.4-.87 6.4-2.6 9a17.21 17.21 0 0 1-7.2 6.05 25.23 25.23 0 0 1-10.8 2.16H71.43V24.78Zm8.06 5.12h16.8l19.38 25.29h-17.3L79.5 29.89Zm53.17-5.12h19.67c2.4 0 4.27-.55 5.62-1.65a5.64 5.64 0 0 0 2.02-4.61c0-2.02-.68-3.57-2.02-4.65-1.35-1.08-3.22-1.62-5.62-1.62h-21.76l6.7-7.14V55.2h-14.91V1.15h32.06c4.13 0 7.73.73 10.8 2.2a17.56 17.56 0 0 1 7.2 6.05c1.74 2.57 2.6 5.6 2.6 9.12 0 3.4-.86 6.4-2.6 9a17.21 17.21 0 0 1-7.2 6.05 25.23 25.23 0 0 1-10.8 2.16h-21.76V24.78Zm8.07 5.12h16.79l19.38 25.29h-17.3l-18.87-25.3Zm71.97 26.44c-6.39 0-12-1.18-16.82-3.53a26.84 26.84 0 0 1-11.24-9.87c-2.66-4.23-4-9.15-4-14.77 0-5.62 1.34-10.54 4-14.77a26.85 26.85 0 0 1 11.24-9.87C200.72 1.18 206.32 0 212.7 0c6.44 0 12.06 1.18 16.86 3.53a27.14 27.14 0 0 1 11.24 9.87c2.69 4.23 4.03 9.15 4.03 14.77 0 5.62-1.34 10.54-4.03 14.77a27.13 27.13 0 0 1-11.24 9.87c-4.8 2.35-10.42 3.53-16.86 3.53Zm0-13.33c3.5 0 6.53-.6 9.08-1.8 2.54-1.2 4.5-2.9 5.87-5.12a14.75 14.75 0 0 0 2.05-7.92c0-3.08-.68-5.72-2.05-7.93a13.46 13.46 0 0 0-5.87-5.11 21.12 21.12 0 0 0-9.08-1.8c-3.46 0-6.46.6-9 1.8a13.7 13.7 0 0 0-5.91 5.11 14.55 14.55 0 0 0-2.1 7.93c0 3.07.7 5.71 2.1 7.92a13.7 13.7 0 0 0 5.9 5.12c2.55 1.2 5.55 1.8 9.01 1.8Zm50.14-18.23h19.67c2.4 0 4.27-.55 5.62-1.65a5.64 5.64 0 0 0 2.02-4.61c0-2.02-.68-3.57-2.02-4.65-1.35-1.08-3.22-1.62-5.62-1.62h-21.76l6.7-7.14V55.2h-14.91V1.15h32.06c4.13 0 7.73.73 10.8 2.2a17.56 17.56 0 0 1 7.21 6.05c1.73 2.57 2.6 5.6 2.6 9.12 0 3.4-.87 6.4-2.6 9a17.2 17.2 0 0 1-7.2 6.05 25.22 25.22 0 0 1-10.81 2.16h-21.76V24.78Zm8.07 5.12h16.79l19.38 25.29h-17.3l-18.87-25.3ZM75.34 107.18a29.73 29.73 0 0 1-5.91 15.1 32.72 32.72 0 0 1-13.01 10.04c-5.37 2.38-11.53 3.57-18.49 3.57-7.6 0-14.24-1.42-19.92-4.27a32.1 32.1 0 0 1-13.27-11.91C1.58 114.6 0 108.66 0 101.87c0-6.79 1.58-12.73 4.74-17.83a32.1 32.1 0 0 1 13.27-11.92c5.68-2.85 12.32-4.27 19.92-4.27 6.96 0 13.12 1.2 18.49 3.57a32.71 32.71 0 0 1 13 10.05 29.74 29.74 0 0 1 5.92 15.1h-18.1a15.42 15.42 0 0 0-3.39-7.1A16.26 16.26 0 0 0 47.28 85a25.8 25.8 0 0 0-9.35-1.56c-4.06 0-7.57.74-10.52 2.21A15.64 15.64 0 0 0 20.6 92c-1.56 2.75-2.34 6.04-2.34 9.87 0 3.83.78 7.12 2.35 9.87a15.64 15.64 0 0 0 6.79 6.36c2.95 1.47 6.46 2.21 10.52 2.21 3.54 0 6.66-.49 9.35-1.47 2.7-1 4.9-2.47 6.57-4.44a15.76 15.76 0 0 0 3.4-7.22h18.1Zm44.63 28.71c-7.71 0-14.48-1.42-20.31-4.27a32.41 32.41 0 0 1-13.57-11.91c-3.22-5.1-4.83-11.05-4.83-17.84 0-6.79 1.6-12.73 4.83-17.83a32.41 32.41 0 0 1 13.57-11.92c5.83-2.85 12.6-4.27 20.31-4.27 7.78 0 14.56 1.42 20.36 4.27a32.77 32.77 0 0 1 13.57 11.92c3.25 5.1 4.88 11.04 4.88 17.83 0 6.79-1.63 12.73-4.88 17.84a32.77 32.77 0 0 1-13.57 11.91c-5.8 2.85-12.58 4.27-20.36 4.27Zm0-16.1c4.24 0 7.9-.72 10.97-2.17a16.26 16.26 0 0 0 7.09-6.18c1.65-2.67 2.48-5.86 2.48-9.57s-.83-6.9-2.48-9.57a16.26 16.26 0 0 0-7.1-6.18c-3.07-1.45-6.72-2.17-10.96-2.17-4.17 0-7.8.72-10.87 2.17a16.54 16.54 0 0 0-7.14 6.18c-1.68 2.67-2.52 5.86-2.52 9.57s.84 6.9 2.52 9.57a16.54 16.54 0 0 0 7.14 6.18c3.07 1.45 6.7 2.17 10.87 2.17Zm80.65-50.54c7.72 0 14.49 1.34 20.32 4.04s10.35 6.5 13.57 11.4c3.22 4.9 4.83 10.63 4.83 17.18 0 6.55-1.61 12.28-4.83 17.18-3.22 4.9-7.74 8.7-13.57 11.4-5.83 2.7-12.6 4.05-20.32 4.05h-32.54V69.25h32.54Zm-14.61 57.68-8.62-8.44h24.62c3.89 0 7.27-.68 10.14-2.05a15.48 15.48 0 0 0 6.66-5.78 16.18 16.18 0 0 0 2.34-8.79c0-3.42-.78-6.37-2.34-8.83a15.58 15.58 0 0 0-6.66-5.74A23.41 23.41 0 0 0 202 85.25h-24.6l8.62-8.44v50.12Zm117.62-31.58v13.05h-47.76V95.35h47.76Zm-35.5 6.52-4.26 26.19-7.3-8.18h49.93v14.62h-60.64l4.96-32.63-4.96-32.62h60.2v14.61h-49.5l7.31-8.18 4.26 26.19ZM53.9 175.55a21.2 21.2 0 0 1-4.21 10.76 23.32 23.32 0 0 1-9.27 7.16 32.23 32.23 0 0 1-13.18 2.54c-5.41 0-10.14-1.01-14.2-3.04a22.88 22.88 0 0 1-9.45-8.49c-2.25-3.64-3.38-7.87-3.38-12.7 0-4.85 1.13-9.08 3.38-12.72a22.87 22.87 0 0 1 9.46-8.5c4.05-2.02 8.78-3.03 14.2-3.03 4.95 0 9.35.85 13.17 2.54a23.3 23.3 0 0 1 9.27 7.16A21.2 21.2 0 0 1 53.9 168H41a10.98 10.98 0 0 0-2.41-5.05 11.59 11.59 0 0 0-4.68-3.2 18.39 18.39 0 0 0-6.67-1.11c-2.89 0-5.4.52-7.5 1.58a11.15 11.15 0 0 0-4.83 4.52 14.01 14.01 0 0 0-1.68 7.04 14 14 0 0 0 1.68 7.04 11.15 11.15 0 0 0 4.83 4.52 16.6 16.6 0 0 0 7.5 1.58c2.52 0 4.75-.35 6.67-1.05 1.92-.7 3.48-1.76 4.68-3.16 1.2-1.4 2-3.12 2.42-5.15h12.9Zm31.8 20.46c-5.49 0-10.31-1.01-14.47-3.04a23.1 23.1 0 0 1-9.67-8.49c-2.3-3.64-3.44-7.87-3.44-12.7 0-4.85 1.15-9.08 3.44-12.72a23.1 23.1 0 0 1 9.67-8.5c4.16-2.02 8.98-3.03 14.48-3.03 5.54 0 10.37 1.01 14.5 3.04a23.35 23.35 0 0 1 9.68 8.5c2.31 3.63 3.47 7.86 3.47 12.7 0 4.84-1.16 9.07-3.47 12.71a23.36 23.36 0 0 1-9.67 8.5C96.08 195 91.25 196 85.7 196Zm0-11.47c3.03 0 5.63-.51 7.82-1.55a11.6 11.6 0 0 0 5.05-4.4 12.7 12.7 0 0 0 1.77-6.82c0-2.65-.59-4.92-1.77-6.82a11.58 11.58 0 0 0-5.05-4.4 18.16 18.16 0 0 0-7.81-1.55 18 18 0 0 0-7.75 1.55 11.78 11.78 0 0 0-5.08 4.4 12.5 12.5 0 0 0-1.8 6.82c0 2.65.6 4.92 1.8 6.82a11.8 11.8 0 0 0 5.08 4.4 18.01 18.01 0 0 0 7.75 1.55Zm40.56-16.99h33.73v10.85h-33.73v-10.85Zm34.9-19.03v10.85H126.7l6.14-6.14v41.8H120v-46.5h41.16Zm12.9 19.03h33.73v10.85h-33.73v-10.85Zm34.9-19.03v10.85H174.5l6.14-6.14v41.8H167.8v-46.5h41.17Zm46.38 18.6v9.3H221.3v-9.3h34.04Zm-25.3 4.65-3.03 18.66-5.21-5.83h35.59v10.42h-43.22l3.54-23.25-3.54-23.25h42.9v10.42H221.8l5.2-5.83 3.05 18.66Zm74.53-4.65v9.3h-34.04v-9.3h34.04Zm-25.3 4.65-3.03 18.66-5.21-5.83h35.59v10.42H263.4l3.54-23.25-3.54-23.25h42.9v10.42h-35.27l5.2-5.83 3.04 18.66Z"/>
</svg>
