<svg xmlns="http://www.w3.org/2000/svg" viewBox="0 0 96 14">
  <path d="M12.26 9.62a5.02 5.02 0 0 1-2.08 3 6.63 6.63 0 0 1-3.7.98c-1.2.03-2.4-.25-3.46-.8a5.43 5.43 0 0 1-2.24-2.35A7.95 7.95 0 0 1 0 6.8a8 8 0 0 1 .78-3.64c.5-1 1.27-1.81 2.24-2.35a6.97 6.97 0 0 1 3.44-.8 7 7 0 0 1 3.66.9c1 .6 1.66 1.52 1.98 2.73L9.08 4.86c-.19-.8-.47-1.36-.86-1.68a2.5 2.5 0 0 0-1.64-.48c-.97 0-1.73.35-2.26 1.05a5 5 0 0 0-.8 3.05c0 1.33.26 2.35.77 3.05a2.6 2.6 0 0 0 2.23 1.05c.73 0 1.31-.17 1.74-.52.43-.35.72-.9.88-1.64l3.12.88Zm14.25-1.6c0 1.85-.5 3.25-1.48 4.18-.99.93-2.46 1.4-4.42 1.4-1.95 0-3.42-.47-4.4-1.4-1-.93-1.5-2.33-1.5-4.18V.2h3.46v7.88c0 .95.2 1.65.6 2.12.4.47 1.01.7 1.84.7 1.65 0 2.48-.94 2.48-2.82V.2h3.42v7.82Zm8.91.56h-2.06v4.82h-3.38V.2h6.3c1.6 0 2.83.36 3.7 1.08.85.72 1.28 1.76 1.28 3.12 0 .96-.22 1.76-.66 2.4a3.85 3.85 0 0 1-1.92 1.42l3.36 5.18h-3.8l-2.82-4.82Zm-2.06-2.44h2.34c.73 0 1.27-.13 1.6-.4.33-.27.5-.7.5-1.28 0-.57-.17-1-.5-1.26-.33-.27-.87-.4-1.6-.4h-2.34v3.34ZM49.7 0c1.25 0 2.32.2 3.2.56.9.37 1.72.98 2.48 1.82l-1.94 2.24a4.25 4.25 0 0 0-1.55-1.47 4.5 4.5 0 0 0-2.13-.47c-.7 0-1.23.12-1.6.36-.38.24-.56.56-.56.96 0 .33.2.6.6.81.4.2 1.05.4 2 .57 1.82.33 3.13.82 3.91 1.46a3.3 3.3 0 0 1 1.17 2.7c0 .84-.24 1.57-.72 2.18a4.45 4.45 0 0 1-2 1.4c-.84.32-1.8.48-2.86.48-1.5 0-2.7-.18-3.64-.55a6.3 6.3 0 0 1-2.42-1.69l1.76-2.4c.52.72 1.1 1.23 1.76 1.52.65.3 1.44.44 2.36.44.73 0 1.28-.1 1.65-.3.36-.2.55-.5.55-.9 0-.3-.2-.56-.6-.75a8.4 8.4 0 0 0-1.96-.55c-.96-.18-1.9-.45-2.8-.8a4.13 4.13 0 0 1-1.73-1.28 3.27 3.27 0 0 1-.6-2.04c0-.83.21-1.57.66-2.22A4.36 4.36 0 0 1 46.64.55 7.96 7.96 0 0 1 49.69 0Zm11.93 13.4h-3.44V.2h3.44v13.2Zm14.23-2.66v2.66H65.3V.2h10.28v2.66h-6.84v2.68h5.44v2.5h-5.44v2.7h7.11Zm6.3-7.88v2.8h5.43v2.66h-5.44v5.08H78.7V.2h10.26v2.66h-6.82ZM91.1 9.4h4v4h-4v-4Z"/>
</svg>
